<svg width="191" height="459" viewBox="0 0 191 459" fill="none" xmlns="http://www.w3.org/2000/svg">
<g opacity="0.8">
<path d="M78.8756 260.359C76.5768 265.832 71.2951 268.843 67.0258 267.064L-61.4065 213.48C-65.6483 211.701 -67.2356 205.817 -64.9641 200.344L15.631 7.21641C17.9024 1.74306 23.2116 -1.2673 27.4534 0.511542L155.886 54.0957C160.155 55.8745 161.742 61.7584 159.443 67.2317L78.8756 260.359Z" fill="url(#paint0_linear_13_750)"/>
<g style="mix-blend-mode:multiply">
<path d="M19.0244 33.543C19.1521 32.7416 18.9759 31.9214 18.5304 31.243C18.085 30.5647 17.4023 30.0771 16.6161 29.8758C16.1518 29.6947 15.6555 29.6101 15.1574 29.6273C14.6594 29.6444 14.17 29.7628 13.7192 29.9754C13.2684 30.188 12.8657 30.4902 12.5357 30.8636C12.2056 31.2371 11.9552 31.6738 11.7996 32.1473C11.5126 33.27 11.4742 34.4419 11.6869 35.581C11.8996 36.7201 12.3583 37.7991 13.0311 38.7427C13.7739 40.2108 14.414 41.7288 14.9467 43.2856C16.4448 42.5991 17.9797 41.9961 19.5444 41.4794C22.0348 40.631 24.2515 39.7553 25.0178 37.7027C25.2421 37.2557 25.3734 36.7677 25.4036 36.2684C25.4338 35.7691 25.3623 35.2689 25.1934 34.7981C25.0245 34.3272 24.7617 33.8956 24.421 33.5293C24.0804 33.163 23.6689 32.8698 23.2115 32.6672C22.5241 32.2889 21.7239 32.1692 20.9558 32.3299C20.1878 32.4905 19.5026 32.9209 19.0244 33.543Z" fill="#EB0000"/>
</g>
<g style="mix-blend-mode:multiply">
<path d="M26.4682 22.6777L21.3507 20.5431L19.5717 22.2672C19.2394 22.5525 18.9613 22.8956 18.7508 23.2797C18.7056 23.3833 18.6822 23.4951 18.6822 23.6081C18.6822 23.7212 18.7056 23.833 18.7508 23.9366C19.068 24.2924 19.4607 24.5729 19.9002 24.7575L19.7359 25.1133L15.5488 23.3618L15.7131 23.0061C16.1147 23.1271 16.543 23.1271 16.9446 23.0061C17.6625 22.6491 18.3112 22.1672 18.8603 21.583L28.0829 12.6067H28.4112V25.5786C28.3603 26.3012 28.4533 27.0267 28.6849 27.7132C28.9319 28.1527 29.3165 28.4989 29.7796 28.6984L29.6154 29.0541L24.3883 26.8648L24.5251 26.509C24.9041 26.6728 25.3182 26.7387 25.7293 26.7006C25.8406 26.6727 25.9436 26.6184 26.0293 26.5421C26.1151 26.4659 26.1812 26.37 26.2219 26.2627C26.3835 25.7689 26.4485 25.2486 26.4134 24.7302L26.4682 22.6777ZM26.4682 21.8567V15.5349L21.9253 19.941L26.4682 21.8567Z" fill="#EB0000"/>
</g>
<g style="mix-blend-mode:multiply">
<path d="M75.4549 234.03C75.3397 234.83 75.521 235.644 75.9646 236.319C76.4082 236.995 77.0834 237.485 77.8632 237.697C78.3294 237.878 78.8275 237.963 79.3275 237.946C79.8274 237.93 80.3189 237.811 80.7718 237.599C81.2247 237.387 81.6298 237.084 81.9624 236.711C82.2951 236.337 82.5484 235.9 82.7071 235.425C82.9778 234.301 83.0081 233.133 82.7958 231.996C82.5836 230.86 82.1337 229.781 81.4756 228.83C80.7345 227.348 80.0855 225.822 79.5325 224.26C78.0474 224.984 76.5107 225.597 74.9349 226.093C72.4719 226.914 70.2278 227.79 69.4615 229.87C69.2363 230.315 69.1037 230.802 69.0716 231.3C69.0395 231.798 69.1086 232.297 69.2749 232.768C69.4411 233.238 69.701 233.67 70.0388 234.038C70.3766 234.405 70.7854 234.7 71.2404 234.905C71.9306 235.291 72.7369 235.415 73.5111 235.254C74.2853 235.093 74.9755 234.659 75.4549 234.03Z" fill="#EB0000"/>
</g>
<g style="mix-blend-mode:multiply">
<path d="M68.0113 244.895L73.1563 247.03L74.9351 245.305C75.2675 245.02 75.5455 244.677 75.7561 244.293C75.8067 244.191 75.8331 244.078 75.8331 243.964C75.8331 243.851 75.8067 243.738 75.7561 243.636C75.4505 243.279 75.0665 242.998 74.6341 242.815L74.7983 242.459L78.958 244.211L78.8212 244.567C78.4196 244.446 77.9913 244.446 77.5897 244.567C76.8718 244.924 76.2231 245.405 75.674 245.99L66.4514 254.966L66.123 254.829V241.857C66.1842 241.132 66.0814 240.402 65.822 239.723C65.587 239.284 65.211 238.937 64.7546 238.737L64.8914 238.382L70.1459 240.571L69.9817 240.927C69.6127 240.762 69.2072 240.696 68.805 240.735C68.6936 240.763 68.5907 240.817 68.5049 240.894C68.4191 240.97 68.353 241.066 68.3123 241.173C68.1507 241.667 68.0857 242.187 68.1208 242.706L68.0113 244.895ZM68.0113 245.716V252.01L72.5542 247.604L68.0113 245.716Z" fill="#EB0000"/>
</g>
<g style="mix-blend-mode:multiply">
<path d="M54.5739 116.217C56.5443 109.074 50.9615 101.904 43.2988 99.0303C35.0888 95.8831 25.0725 99.0303 20.6117 109.676C16.5614 119.364 20.9949 129.654 26.3861 140.683C29.8389 147.591 32.8729 154.701 35.4719 161.974C42.4788 158.719 49.6704 155.877 57.0096 153.463C68.6678 149.549 79.0671 145.444 83.1174 135.757C87.5782 125.056 82.789 115.806 74.7432 112.139C67.2994 108.745 58.2684 109.703 54.5739 116.217Z" fill="#EB0000"/>
</g>
<path d="M67.7101 453.212C64.3166 458.084 58.4874 459.89 54.7108 457.235L-59.2444 377.406C-63.0211 374.67 -63.3221 368.676 -59.9012 363.723L60.1294 192.325C63.5229 187.454 69.352 185.647 73.1286 188.302L187.057 268.24C190.833 270.977 191.134 276.943 187.713 281.924L67.7101 453.212Z" fill="url(#paint1_linear_13_750)"/>
<path d="M86.6205 316.432C83.1175 300.313 84.5406 293.361 84.5406 293.361C84.5406 293.361 78.4925 297.056 62.1546 299.273C49.0185 301.052 38.4549 302.557 32.5711 310.958C31.3474 312.703 30.4793 314.672 30.0165 316.752C29.5536 318.832 29.5051 320.984 29.8736 323.083C30.2421 325.182 31.0203 327.188 32.164 328.986C33.3077 330.784 34.7945 332.34 36.5393 333.563C38.8379 335.341 41.5497 336.507 44.4213 336.952C47.2929 337.397 50.2304 337.107 52.9594 336.108C48.5533 340.87 41.739 347.876 36.8677 347.849L49.5111 356.716C47.8418 352.145 52.0836 343.333 54.9845 337.559C54.9692 340.478 55.7003 343.354 57.1085 345.911C58.5166 348.469 60.5551 350.624 63.0303 352.173C64.7751 353.396 66.7439 354.264 68.8242 354.727C70.9045 355.19 73.0555 355.239 75.1546 354.87C77.2537 354.502 79.2596 353.723 81.0579 352.58C82.8562 351.436 84.4116 349.949 85.6353 348.204C91.656 339.803 89.4392 329.349 86.6205 316.432Z" fill="black"/>
<path d="M61.3609 222.947C60.9181 221.411 60.7696 219.804 60.923 218.213C59.4797 218.899 57.92 219.308 56.3254 219.417C53.5887 219.8 51.4541 220.101 50.25 221.825C49.9982 222.184 49.8197 222.59 49.7246 223.018C49.6296 223.446 49.6199 223.889 49.6962 224.321C49.7724 224.753 49.9331 225.166 50.169 225.536C50.4049 225.906 50.7114 226.226 51.0709 226.477C51.5445 226.848 52.1068 227.089 52.7021 227.175C53.2974 227.262 53.9049 227.191 54.4644 226.97C53.5613 227.955 52.1382 229.406 51.153 229.406L53.7255 231.212C53.3971 230.281 54.2729 228.475 54.875 227.271C54.8733 227.874 55.0227 228.468 55.3095 228.999C55.5963 229.529 56.0114 229.98 56.5169 230.309C57.2449 230.81 58.1408 231.005 59.0113 230.852C59.8818 230.698 60.6569 230.208 61.1693 229.488C61.6479 228.469 61.9119 227.363 61.9448 226.237C61.9778 225.112 61.779 223.992 61.3609 222.947Z" fill="black"/>
<path d="M68.695 211.808L64.1248 208.634L62.0175 209.92C61.6368 210.135 61.2946 210.413 61.005 210.741C60.9613 210.845 60.9388 210.956 60.9388 211.069C60.9388 211.182 60.9613 211.294 61.005 211.398C61.2201 211.819 61.5406 212.177 61.9355 212.438L61.7166 212.766L57.9946 210.166L58.2409 209.838C58.6034 210.034 59.0057 210.147 59.4177 210.166C60.1931 209.961 60.9254 209.618 61.5797 209.154L72.5264 202.367L72.8275 202.586L70.0908 215.256C69.8924 215.959 69.8366 216.694 69.9266 217.418C70.0612 217.899 70.3618 218.316 70.7749 218.595L70.5287 218.924L65.9037 215.667L66.1226 215.338C66.4504 215.583 66.838 215.734 67.2446 215.776C67.3589 215.768 67.4698 215.734 67.5692 215.677C67.6687 215.621 67.7541 215.542 67.8193 215.448C68.0816 215.004 68.2492 214.51 68.3119 213.998L68.695 211.808ZM68.8866 211.015L70.2276 204.857L64.7542 208.168L68.8866 211.015Z" fill="black"/>
<path d="M76.7408 419.168C76.2662 418.799 75.7054 418.558 75.1116 418.467C74.5178 418.376 73.9105 418.438 73.3474 418.648C74.2505 417.69 75.6735 416.239 76.6588 416.239L73.9221 414.406C74.2778 415.364 73.4021 417.142 72.8 418.347C72.8021 417.747 72.6527 417.157 72.3657 416.631C72.0786 416.104 71.6632 415.659 71.158 415.336C70.7987 415.084 70.3933 414.906 69.965 414.811C69.5366 414.716 69.0938 414.706 68.6617 414.782C68.2296 414.859 67.8168 415.019 67.4469 415.255C67.0769 415.491 66.7571 415.798 66.5057 416.157C66.0271 417.176 65.763 418.282 65.7301 419.408C65.6971 420.533 65.8959 421.653 66.3141 422.698C66.7569 424.234 66.9054 425.841 66.752 427.432C68.1957 426.742 69.7543 426.325 71.3496 426.201C74.0863 425.845 76.2209 425.544 77.425 423.82C77.9477 423.111 78.169 422.224 78.0409 421.353C77.9127 420.481 77.4455 419.696 76.7408 419.168Z" fill="black"/>
<path d="M59.1169 433.808L63.6871 437.01L65.7944 435.724C66.1751 435.508 66.5173 435.231 66.8069 434.903C66.8556 434.8 66.8808 434.688 66.8808 434.574C66.8808 434.461 66.8556 434.348 66.8069 434.246C66.5995 433.828 66.2886 433.47 65.9038 433.206L66.1227 432.877L69.8173 435.614L69.5983 435.942C69.2485 435.716 68.838 435.602 68.4215 435.614C67.6447 435.802 66.9108 436.136 66.2595 436.599L55.3128 443.414L55.0118 443.195L57.7485 430.524C57.9469 429.821 58.0027 429.086 57.9127 428.362C57.768 427.887 57.4696 427.473 57.0643 427.185L57.3106 426.857L61.9356 430.113L61.7167 430.442C61.4005 430.177 61.0065 430.024 60.5947 430.004C60.4823 430.007 60.3721 430.036 60.2725 430.088C60.1729 430.14 60.0865 430.214 60.0199 430.305C59.7624 430.752 59.5951 431.244 59.5273 431.755L59.1169 433.808ZM58.9253 434.629L57.5843 440.786L63.0577 437.475L58.9253 434.629Z" fill="black"/>
</g>
<defs>
<linearGradient id="paint0_linear_13_750" x1="46.1273" y1="246.469" x2="48.2723" y2="11.3605" gradientUnits="userSpaceOnUse">
<stop stop-color="#663500"/>
<stop offset="0.08" stop-color="#764710"/>
<stop offset="0.24" stop-color="#9E7538"/>
<stop offset="0.41" stop-color="#D0AD6A"/>
<stop offset="0.5" stop-color="#D8B97C"/>
<stop offset="0.72" stop-color="#EAD3A2"/>
</linearGradient>
<linearGradient id="paint1_linear_13_750" x1="38.6249" y1="454.675" x2="85.7574" y2="207.814" gradientUnits="userSpaceOnUse">
<stop stop-color="#663500"/>
<stop offset="0.08" stop-color="#764710"/>
<stop offset="0.24" stop-color="#9E7538"/>
<stop offset="0.41" stop-color="#D0AD6A"/>
<stop offset="0.5" stop-color="#D8B97C"/>
<stop offset="0.72" stop-color="#EAD3A2"/>
</linearGradient>
</defs>
</svg>
